<svg width="26" height="12" viewBox="0 0 26 12" fill="none" xmlns="http://www.w3.org/2000/svg">
<path d="M0.764706 4.86654L6.85848e-08 4.86654L-6.85844e-08 6.39595L0.764706 6.39595L0.764706 5.63124L0.764706 4.86654ZM25.776 6.17197C26.0747 5.87334 26.0747 5.38915 25.776 5.09052L20.9095 0.223957C20.6108 -0.0746795 20.1266 -0.0746796 19.828 0.223957C19.5294 0.522593 19.5294 1.00678 19.828 1.30541L24.1538 5.63124L19.828 9.95707C19.5294 10.2557 19.5294 10.7399 19.828 11.0385C20.1266 11.3372 20.6108 11.3372 20.9095 11.0385L25.776 6.17197ZM0.764706 5.63124L0.764706 6.39595L25.2353 6.39595L25.2353 5.63124L25.2353 4.86654L0.764706 4.86654L0.764706 5.63124Z" fill="#F5F5F5"/>
</svg>
