<svg width="28" height="12" viewBox="0 0 28 12" fill="none" xmlns="http://www.w3.org/2000/svg">
<path d="M0.777569 4.94839L8.12771e-08 4.94839L-8.12771e-08 6.50353L0.777569 6.50353L0.777569 5.72596L0.777569 4.94839ZM27.7722 6.27579C28.0759 5.97213 28.0759 5.4798 27.7722 5.17614L22.8238 0.227724C22.5202 -0.0759358 22.0278 -0.0759358 21.7242 0.227724C21.4205 0.531383 21.4205 1.02371 21.7242 1.32737L26.1228 5.72596L21.7242 10.1246C21.4205 10.4282 21.4205 10.9205 21.7242 11.2242C22.0278 11.5279 22.5202 11.5279 22.8238 11.2242L27.7722 6.27579ZM0.777569 5.72596L0.777569 6.50353L27.2224 6.50353L27.2224 5.72596L27.2224 4.9484L0.777569 4.94839L0.777569 5.72596Z" fill="white"/>
</svg>
