<svg width="65" height="19" viewBox="0 0 65 19" fill="none" xmlns="http://www.w3.org/2000/svg">
<path fill-rule="evenodd" clip-rule="evenodd" d="M25.2805 0C27.1103 0 28.8454 0.956044 29.8014 2.35209L27.9729 4.18191H27.397C27.0181 3.37171 26.1842 2.87561 25.2805 2.87561C24.2048 2.87561 23.1964 3.76061 23.1366 4.88742C23.0929 5.73502 23.4818 6.26477 24.1836 6.71724C24.939 7.20461 25.2481 7.40778 26.2739 7.97119C27.392 8.5857 30.2203 9.79104 30.2203 12.9633C30.2203 16.0907 27.6064 19 24.2347 19C23.8022 19 23.0181 18.9514 22.4323 18.8167C20.7807 18.4166 19.7786 17.7921 18.6954 16.517L21.0475 14.1126L21.8577 14.7919C22.2229 15.0786 23.0256 15.6557 23.7897 15.7591C25.3428 15.9698 26.3849 14.9427 26.5868 13.9293C26.7476 13.1291 26.5444 11.935 25.2543 11.3167C25.2543 11.3167 22.9284 10.0241 21.9088 9.43455C20.8705 8.83375 19.7661 7.19339 19.7661 5.2277C19.7661 3.76435 20.4367 2.34711 21.5174 1.3599C22.3525 0.594567 23.498 0 25.2805 0Z" fill="black"/>
<path fill-rule="evenodd" clip-rule="evenodd" d="M38.9944 0C40.8242 0 42.5593 0.956044 43.5153 2.35209L41.6868 4.18191H41.1109C40.732 3.37171 39.8981 2.87561 38.9944 2.87561C37.9187 2.87561 36.9103 3.76061 36.8504 4.88742C36.8068 5.73502 37.1957 6.26477 37.8975 6.71724C38.6528 7.20461 38.962 7.40778 39.9878 7.97119C41.1059 8.5857 43.9341 9.79104 43.9341 12.9633C43.9341 16.0907 41.3203 19 37.9486 19C37.5161 19 36.732 18.9514 36.1462 18.8167C34.4946 18.4166 33.4924 17.7921 32.4093 16.517L34.7614 14.1126L35.5716 14.7919C35.9368 15.0786 36.7395 15.6557 37.5036 15.7591C39.0567 15.9698 40.0987 14.9427 40.3007 13.9293C40.4615 13.1291 40.2583 11.935 38.9682 11.3167C38.9682 11.3167 36.6423 10.0241 35.6227 9.43455C34.5844 8.83375 33.48 7.19339 33.48 5.2277C33.48 3.76435 34.1506 2.34711 35.2313 1.3599C36.0664 0.594567 37.2119 0 38.9944 0Z" fill="black"/>
<path fill-rule="evenodd" clip-rule="evenodd" d="M15.5997 0V18.4515L15.2332 18.8167H12.4636V0.366463L12.8288 0H15.5997Z" fill="black"/>
<path fill-rule="evenodd" clip-rule="evenodd" d="M55.5276 0C58.0228 0 60.4159 0.991236 62.1803 2.75565C63.9447 4.52006 64.9359 6.91312 64.9359 9.40837C64.9359 11.9036 63.9447 14.2967 62.1803 16.0611C60.4159 17.8255 58.0228 18.8167 55.5276 18.8167C53.0323 18.8167 50.6393 17.8255 48.8748 16.0611C47.1104 14.2967 46.1192 11.9036 46.1192 9.40837C46.1192 6.91312 47.1104 4.52006 48.8748 2.75565C50.6393 0.991236 53.0323 0 55.5276 0ZM55.5263 3.13737C54.7026 3.13745 53.8869 3.29979 53.1258 3.6151C52.3648 3.93042 51.6734 4.39254 51.0909 4.97509C49.9146 6.1516 49.2539 7.74719 49.2541 9.41086C49.2542 11.0745 49.9153 12.67 51.0918 13.8463C52.2683 15.0225 53.8639 15.6833 55.5276 15.6831C57.1912 15.6831 58.7868 15.0222 59.9632 13.8458C61.1396 12.6694 61.8004 11.0739 61.8004 9.41024C61.8004 7.74657 61.1396 6.15104 59.9632 4.97465C58.7868 3.79826 57.1912 3.13737 55.5276 3.13737H55.5263Z" fill="black"/>
<path fill-rule="evenodd" clip-rule="evenodd" d="M9.40837 0V2.77091L9.04191 3.13612H6.27225V18.8167H3.13612V3.13612H0V0.366463L0.366461 0H9.40837Z" fill="black"/>
</svg>
